G75*
%MOIN*%
%OFA0B0*%
%FSLAX24Y24*%
%IPPOS*%
%LPD*%
%AMOC8*
5,1,8,0,0,1.08239X$1,22.5*
%
%ADD10C,0.0000*%
%ADD11C,0.0060*%
%ADD12C,0.0070*%
%ADD13C,0.0020*%
%ADD14C,0.0050*%
%ADD15C,0.0120*%
%ADD16C,0.0100*%
%ADD17C,0.0040*%
%ADD18C,0.0030*%
%ADD19R,0.0200X0.0150*%
D10*
X000400Y000100D02*
X000400Y022096D01*
X025770Y022096D01*
X025770Y000100D01*
X000400Y000100D01*
X001170Y001500D02*
X001172Y001550D01*
X001178Y001600D01*
X001188Y001649D01*
X001202Y001697D01*
X001219Y001744D01*
X001240Y001789D01*
X001265Y001833D01*
X001293Y001874D01*
X001325Y001913D01*
X001359Y001950D01*
X001396Y001984D01*
X001436Y002014D01*
X001478Y002041D01*
X001522Y002065D01*
X001568Y002086D01*
X001615Y002102D01*
X001663Y002115D01*
X001713Y002124D01*
X001762Y002129D01*
X001813Y002130D01*
X001863Y002127D01*
X001912Y002120D01*
X001961Y002109D01*
X002009Y002094D01*
X002055Y002076D01*
X002100Y002054D01*
X002143Y002028D01*
X002184Y001999D01*
X002223Y001967D01*
X002259Y001932D01*
X002291Y001894D01*
X002321Y001854D01*
X002348Y001811D01*
X002371Y001767D01*
X002390Y001721D01*
X002406Y001673D01*
X002418Y001624D01*
X002426Y001575D01*
X002430Y001525D01*
X002430Y001475D01*
X002426Y001425D01*
X002418Y001376D01*
X002406Y001327D01*
X002390Y001279D01*
X002371Y001233D01*
X002348Y001189D01*
X002321Y001146D01*
X002291Y001106D01*
X002259Y001068D01*
X002223Y001033D01*
X002184Y001001D01*
X002143Y000972D01*
X002100Y000946D01*
X002055Y000924D01*
X002009Y000906D01*
X001961Y000891D01*
X001912Y000880D01*
X001863Y000873D01*
X001813Y000870D01*
X001762Y000871D01*
X001713Y000876D01*
X001663Y000885D01*
X001615Y000898D01*
X001568Y000914D01*
X001522Y000935D01*
X001478Y000959D01*
X001436Y000986D01*
X001396Y001016D01*
X001359Y001050D01*
X001325Y001087D01*
X001293Y001126D01*
X001265Y001167D01*
X001240Y001211D01*
X001219Y001256D01*
X001202Y001303D01*
X001188Y001351D01*
X001178Y001400D01*
X001172Y001450D01*
X001170Y001500D01*
X001170Y020300D02*
X001172Y020350D01*
X001178Y020400D01*
X001188Y020449D01*
X001202Y020497D01*
X001219Y020544D01*
X001240Y020589D01*
X001265Y020633D01*
X001293Y020674D01*
X001325Y020713D01*
X001359Y020750D01*
X001396Y020784D01*
X001436Y020814D01*
X001478Y020841D01*
X001522Y020865D01*
X001568Y020886D01*
X001615Y020902D01*
X001663Y020915D01*
X001713Y020924D01*
X001762Y020929D01*
X001813Y020930D01*
X001863Y020927D01*
X001912Y020920D01*
X001961Y020909D01*
X002009Y020894D01*
X002055Y020876D01*
X002100Y020854D01*
X002143Y020828D01*
X002184Y020799D01*
X002223Y020767D01*
X002259Y020732D01*
X002291Y020694D01*
X002321Y020654D01*
X002348Y020611D01*
X002371Y020567D01*
X002390Y020521D01*
X002406Y020473D01*
X002418Y020424D01*
X002426Y020375D01*
X002430Y020325D01*
X002430Y020275D01*
X002426Y020225D01*
X002418Y020176D01*
X002406Y020127D01*
X002390Y020079D01*
X002371Y020033D01*
X002348Y019989D01*
X002321Y019946D01*
X002291Y019906D01*
X002259Y019868D01*
X002223Y019833D01*
X002184Y019801D01*
X002143Y019772D01*
X002100Y019746D01*
X002055Y019724D01*
X002009Y019706D01*
X001961Y019691D01*
X001912Y019680D01*
X001863Y019673D01*
X001813Y019670D01*
X001762Y019671D01*
X001713Y019676D01*
X001663Y019685D01*
X001615Y019698D01*
X001568Y019714D01*
X001522Y019735D01*
X001478Y019759D01*
X001436Y019786D01*
X001396Y019816D01*
X001359Y019850D01*
X001325Y019887D01*
X001293Y019926D01*
X001265Y019967D01*
X001240Y020011D01*
X001219Y020056D01*
X001202Y020103D01*
X001188Y020151D01*
X001178Y020200D01*
X001172Y020250D01*
X001170Y020300D01*
X023070Y020300D02*
X023072Y020350D01*
X023078Y020400D01*
X023088Y020449D01*
X023102Y020497D01*
X023119Y020544D01*
X023140Y020589D01*
X023165Y020633D01*
X023193Y020674D01*
X023225Y020713D01*
X023259Y020750D01*
X023296Y020784D01*
X023336Y020814D01*
X023378Y020841D01*
X023422Y020865D01*
X023468Y020886D01*
X023515Y020902D01*
X023563Y020915D01*
X023613Y020924D01*
X023662Y020929D01*
X023713Y020930D01*
X023763Y020927D01*
X023812Y020920D01*
X023861Y020909D01*
X023909Y020894D01*
X023955Y020876D01*
X024000Y020854D01*
X024043Y020828D01*
X024084Y020799D01*
X024123Y020767D01*
X024159Y020732D01*
X024191Y020694D01*
X024221Y020654D01*
X024248Y020611D01*
X024271Y020567D01*
X024290Y020521D01*
X024306Y020473D01*
X024318Y020424D01*
X024326Y020375D01*
X024330Y020325D01*
X024330Y020275D01*
X024326Y020225D01*
X024318Y020176D01*
X024306Y020127D01*
X024290Y020079D01*
X024271Y020033D01*
X024248Y019989D01*
X024221Y019946D01*
X024191Y019906D01*
X024159Y019868D01*
X024123Y019833D01*
X024084Y019801D01*
X024043Y019772D01*
X024000Y019746D01*
X023955Y019724D01*
X023909Y019706D01*
X023861Y019691D01*
X023812Y019680D01*
X023763Y019673D01*
X023713Y019670D01*
X023662Y019671D01*
X023613Y019676D01*
X023563Y019685D01*
X023515Y019698D01*
X023468Y019714D01*
X023422Y019735D01*
X023378Y019759D01*
X023336Y019786D01*
X023296Y019816D01*
X023259Y019850D01*
X023225Y019887D01*
X023193Y019926D01*
X023165Y019967D01*
X023140Y020011D01*
X023119Y020056D01*
X023102Y020103D01*
X023088Y020151D01*
X023078Y020200D01*
X023072Y020250D01*
X023070Y020300D01*
X023070Y001500D02*
X023072Y001550D01*
X023078Y001600D01*
X023088Y001649D01*
X023102Y001697D01*
X023119Y001744D01*
X023140Y001789D01*
X023165Y001833D01*
X023193Y001874D01*
X023225Y001913D01*
X023259Y001950D01*
X023296Y001984D01*
X023336Y002014D01*
X023378Y002041D01*
X023422Y002065D01*
X023468Y002086D01*
X023515Y002102D01*
X023563Y002115D01*
X023613Y002124D01*
X023662Y002129D01*
X023713Y002130D01*
X023763Y002127D01*
X023812Y002120D01*
X023861Y002109D01*
X023909Y002094D01*
X023955Y002076D01*
X024000Y002054D01*
X024043Y002028D01*
X024084Y001999D01*
X024123Y001967D01*
X024159Y001932D01*
X024191Y001894D01*
X024221Y001854D01*
X024248Y001811D01*
X024271Y001767D01*
X024290Y001721D01*
X024306Y001673D01*
X024318Y001624D01*
X024326Y001575D01*
X024330Y001525D01*
X024330Y001475D01*
X024326Y001425D01*
X024318Y001376D01*
X024306Y001327D01*
X024290Y001279D01*
X024271Y001233D01*
X024248Y001189D01*
X024221Y001146D01*
X024191Y001106D01*
X024159Y001068D01*
X024123Y001033D01*
X024084Y001001D01*
X024043Y000972D01*
X024000Y000946D01*
X023955Y000924D01*
X023909Y000906D01*
X023861Y000891D01*
X023812Y000880D01*
X023763Y000873D01*
X023713Y000870D01*
X023662Y000871D01*
X023613Y000876D01*
X023563Y000885D01*
X023515Y000898D01*
X023468Y000914D01*
X023422Y000935D01*
X023378Y000959D01*
X023336Y000986D01*
X023296Y001016D01*
X023259Y001050D01*
X023225Y001087D01*
X023193Y001126D01*
X023165Y001167D01*
X023140Y001211D01*
X023119Y001256D01*
X023102Y001303D01*
X023088Y001351D01*
X023078Y001400D01*
X023072Y001450D01*
X023070Y001500D01*
D11*
X019950Y006950D02*
X018650Y006950D01*
X018624Y006952D01*
X018598Y006957D01*
X018573Y006965D01*
X018550Y006977D01*
X018528Y006991D01*
X018509Y007009D01*
X018491Y007028D01*
X018477Y007050D01*
X018465Y007073D01*
X018457Y007098D01*
X018452Y007124D01*
X018450Y007150D01*
X018450Y007650D01*
X018452Y007676D01*
X018457Y007702D01*
X018465Y007727D01*
X018477Y007750D01*
X018491Y007772D01*
X018509Y007791D01*
X018528Y007809D01*
X018550Y007823D01*
X018573Y007835D01*
X018598Y007843D01*
X018624Y007848D01*
X018650Y007850D01*
X019950Y007850D01*
X019976Y007848D01*
X020002Y007843D01*
X020027Y007835D01*
X020050Y007823D01*
X020072Y007809D01*
X020091Y007791D01*
X020109Y007772D01*
X020123Y007750D01*
X020135Y007727D01*
X020143Y007702D01*
X020148Y007676D01*
X020150Y007650D01*
X020150Y007150D01*
X020148Y007124D01*
X020143Y007098D01*
X020135Y007073D01*
X020123Y007050D01*
X020109Y007028D01*
X020091Y007009D01*
X020072Y006991D01*
X020050Y006977D01*
X020027Y006965D01*
X020002Y006957D01*
X019976Y006952D01*
X019950Y006950D01*
X011100Y000900D02*
X008900Y000900D01*
X008900Y015500D01*
X009750Y015500D01*
X009752Y015470D01*
X009757Y015440D01*
X009766Y015411D01*
X009779Y015384D01*
X009794Y015358D01*
X009813Y015334D01*
X009834Y015313D01*
X009858Y015294D01*
X009884Y015279D01*
X009911Y015266D01*
X009940Y015257D01*
X009970Y015252D01*
X010000Y015250D01*
X010030Y015252D01*
X010060Y015257D01*
X010089Y015266D01*
X010116Y015279D01*
X010142Y015294D01*
X010166Y015313D01*
X010187Y015334D01*
X010206Y015358D01*
X010221Y015384D01*
X010234Y015411D01*
X010243Y015440D01*
X010248Y015470D01*
X010250Y015500D01*
X011100Y015500D01*
X011100Y000900D01*
X007150Y002050D02*
X007150Y003350D01*
X007148Y003376D01*
X007143Y003402D01*
X007135Y003427D01*
X007123Y003450D01*
X007109Y003472D01*
X007091Y003491D01*
X007072Y003509D01*
X007050Y003523D01*
X007027Y003535D01*
X007002Y003543D01*
X006976Y003548D01*
X006950Y003550D01*
X006450Y003550D01*
X006450Y003650D02*
X006950Y003650D01*
X006976Y003652D01*
X007002Y003657D01*
X007027Y003665D01*
X007050Y003677D01*
X007072Y003691D01*
X007091Y003709D01*
X007109Y003728D01*
X007123Y003750D01*
X007135Y003773D01*
X007143Y003798D01*
X007148Y003824D01*
X007150Y003850D01*
X007150Y005150D01*
X007148Y005176D01*
X007143Y005202D01*
X007135Y005227D01*
X007123Y005250D01*
X007109Y005272D01*
X007091Y005291D01*
X007072Y005309D01*
X007050Y005323D01*
X007027Y005335D01*
X007002Y005343D01*
X006976Y005348D01*
X006950Y005350D01*
X006450Y005350D01*
X006450Y005450D02*
X006950Y005450D01*
X006976Y005452D01*
X007002Y005457D01*
X007027Y005465D01*
X007050Y005477D01*
X007072Y005491D01*
X007091Y005509D01*
X007109Y005528D01*
X007123Y005550D01*
X007135Y005573D01*
X007143Y005598D01*
X007148Y005624D01*
X007150Y005650D01*
X007150Y006950D01*
X007148Y006976D01*
X007143Y007002D01*
X007135Y007027D01*
X007123Y007050D01*
X007109Y007072D01*
X007091Y007091D01*
X007072Y007109D01*
X007050Y007123D01*
X007027Y007135D01*
X007002Y007143D01*
X006976Y007148D01*
X006950Y007150D01*
X006450Y007150D01*
X006424Y007148D01*
X006398Y007143D01*
X006373Y007135D01*
X006350Y007123D01*
X006328Y007109D01*
X006309Y007091D01*
X006291Y007072D01*
X006277Y007050D01*
X006265Y007027D01*
X006257Y007002D01*
X006252Y006976D01*
X006250Y006950D01*
X006250Y005650D01*
X006252Y005624D01*
X006257Y005598D01*
X006265Y005573D01*
X006277Y005550D01*
X006291Y005528D01*
X006309Y005509D01*
X006328Y005491D01*
X006350Y005477D01*
X006373Y005465D01*
X006398Y005457D01*
X006424Y005452D01*
X006450Y005450D01*
X006450Y005350D02*
X006424Y005348D01*
X006398Y005343D01*
X006373Y005335D01*
X006350Y005323D01*
X006328Y005309D01*
X006309Y005291D01*
X006291Y005272D01*
X006277Y005250D01*
X006265Y005227D01*
X006257Y005202D01*
X006252Y005176D01*
X006250Y005150D01*
X006250Y003850D01*
X006252Y003824D01*
X006257Y003798D01*
X006265Y003773D01*
X006277Y003750D01*
X006291Y003728D01*
X006309Y003709D01*
X006328Y003691D01*
X006350Y003677D01*
X006373Y003665D01*
X006398Y003657D01*
X006424Y003652D01*
X006450Y003650D01*
X006450Y003550D02*
X006424Y003548D01*
X006398Y003543D01*
X006373Y003535D01*
X006350Y003523D01*
X006328Y003509D01*
X006309Y003491D01*
X006291Y003472D01*
X006277Y003450D01*
X006265Y003427D01*
X006257Y003402D01*
X006252Y003376D01*
X006250Y003350D01*
X006250Y002050D01*
X006252Y002024D01*
X006257Y001998D01*
X006265Y001973D01*
X006277Y001950D01*
X006291Y001928D01*
X006309Y001909D01*
X006328Y001891D01*
X006350Y001877D01*
X006373Y001865D01*
X006398Y001857D01*
X006424Y001852D01*
X006450Y001850D01*
X006950Y001850D01*
X006976Y001852D01*
X007002Y001857D01*
X007027Y001865D01*
X007050Y001877D01*
X007072Y001891D01*
X007091Y001909D01*
X007109Y001928D01*
X007123Y001950D01*
X007135Y001973D01*
X007143Y001998D01*
X007148Y002024D01*
X007150Y002050D01*
X005900Y002850D02*
X005900Y005550D01*
X005898Y005609D01*
X005892Y005667D01*
X005883Y005726D01*
X005869Y005783D01*
X005852Y005839D01*
X005831Y005894D01*
X005807Y005948D01*
X005779Y006000D01*
X005748Y006050D01*
X005714Y006098D01*
X005677Y006143D01*
X005636Y006186D01*
X005593Y006227D01*
X005548Y006264D01*
X005500Y006298D01*
X005450Y006329D01*
X005398Y006357D01*
X005344Y006381D01*
X005289Y006402D01*
X005233Y006419D01*
X005176Y006433D01*
X005117Y006442D01*
X005059Y006448D01*
X005000Y006450D01*
X004941Y006448D01*
X004883Y006442D01*
X004824Y006433D01*
X004767Y006419D01*
X004711Y006402D01*
X004656Y006381D01*
X004602Y006357D01*
X004550Y006329D01*
X004500Y006298D01*
X004452Y006264D01*
X004407Y006227D01*
X004364Y006186D01*
X004323Y006143D01*
X004286Y006098D01*
X004252Y006050D01*
X004221Y006000D01*
X004193Y005948D01*
X004169Y005894D01*
X004148Y005839D01*
X004131Y005783D01*
X004117Y005726D01*
X004108Y005667D01*
X004102Y005609D01*
X004100Y005550D01*
X004100Y002850D01*
X004102Y002791D01*
X004108Y002733D01*
X004117Y002674D01*
X004131Y002617D01*
X004148Y002561D01*
X004169Y002506D01*
X004193Y002452D01*
X004221Y002400D01*
X004252Y002350D01*
X004286Y002302D01*
X004323Y002257D01*
X004364Y002214D01*
X004407Y002173D01*
X004452Y002136D01*
X004500Y002102D01*
X004550Y002071D01*
X004602Y002043D01*
X004656Y002019D01*
X004711Y001998D01*
X004767Y001981D01*
X004824Y001967D01*
X004883Y001958D01*
X004941Y001952D01*
X005000Y001950D01*
X005059Y001952D01*
X005117Y001958D01*
X005176Y001967D01*
X005233Y001981D01*
X005289Y001998D01*
X005344Y002019D01*
X005398Y002043D01*
X005450Y002071D01*
X005500Y002102D01*
X005548Y002136D01*
X005593Y002173D01*
X005636Y002214D01*
X005677Y002257D01*
X005714Y002302D01*
X005748Y002350D01*
X005779Y002400D01*
X005807Y002452D01*
X005831Y002506D01*
X005852Y002561D01*
X005869Y002617D01*
X005883Y002674D01*
X005892Y002733D01*
X005898Y002791D01*
X005900Y002850D01*
X009350Y007250D02*
X010650Y007250D01*
X010676Y007252D01*
X010702Y007257D01*
X010727Y007265D01*
X010750Y007277D01*
X010772Y007291D01*
X010791Y007309D01*
X010809Y007328D01*
X010823Y007350D01*
X010835Y007373D01*
X010843Y007398D01*
X010848Y007424D01*
X010850Y007450D01*
X010850Y007950D01*
X010848Y007976D01*
X010843Y008002D01*
X010835Y008027D01*
X010823Y008050D01*
X010809Y008072D01*
X010791Y008091D01*
X010772Y008109D01*
X010750Y008123D01*
X010727Y008135D01*
X010702Y008143D01*
X010676Y008148D01*
X010650Y008150D01*
X009350Y008150D01*
X009324Y008148D01*
X009298Y008143D01*
X009273Y008135D01*
X009250Y008123D01*
X009228Y008109D01*
X009209Y008091D01*
X009191Y008072D01*
X009177Y008050D01*
X009165Y008027D01*
X009157Y008002D01*
X009152Y007976D01*
X009150Y007950D01*
X009150Y007450D01*
X009152Y007424D01*
X009157Y007398D01*
X009165Y007373D01*
X009177Y007350D01*
X009191Y007328D01*
X009209Y007309D01*
X009228Y007291D01*
X009250Y007277D01*
X009273Y007265D01*
X009298Y007257D01*
X009324Y007252D01*
X009350Y007250D01*
X006000Y007700D02*
X006000Y007850D01*
X005950Y007900D01*
X005950Y009300D01*
X006000Y009350D01*
X006000Y009500D01*
X005998Y009517D01*
X005994Y009534D01*
X005987Y009550D01*
X005977Y009564D01*
X005964Y009577D01*
X005950Y009587D01*
X005934Y009594D01*
X005917Y009598D01*
X005900Y009600D01*
X005300Y009600D01*
X005283Y009598D01*
X005266Y009594D01*
X005250Y009587D01*
X005236Y009577D01*
X005223Y009564D01*
X005213Y009550D01*
X005206Y009534D01*
X005202Y009517D01*
X005200Y009500D01*
X005200Y009350D01*
X005250Y009300D01*
X005250Y007900D01*
X005200Y007850D01*
X005200Y007700D01*
X005100Y007700D02*
X005100Y007850D01*
X005050Y007900D01*
X005050Y009300D01*
X005100Y009350D01*
X005100Y009500D01*
X005098Y009517D01*
X005094Y009534D01*
X005087Y009550D01*
X005077Y009564D01*
X005064Y009577D01*
X005050Y009587D01*
X005034Y009594D01*
X005017Y009598D01*
X005000Y009600D01*
X004400Y009600D01*
X004383Y009598D01*
X004366Y009594D01*
X004350Y009587D01*
X004336Y009577D01*
X004323Y009564D01*
X004313Y009550D01*
X004306Y009534D01*
X004302Y009517D01*
X004300Y009500D01*
X004300Y009350D01*
X004350Y009300D01*
X004350Y007900D01*
X004300Y007850D01*
X004300Y007700D01*
X004302Y007683D01*
X004306Y007666D01*
X004313Y007650D01*
X004323Y007636D01*
X004336Y007623D01*
X004350Y007613D01*
X004366Y007606D01*
X004383Y007602D01*
X004400Y007600D01*
X005000Y007600D01*
X005017Y007602D01*
X005034Y007606D01*
X005050Y007613D01*
X005064Y007623D01*
X005077Y007636D01*
X005087Y007650D01*
X005094Y007666D01*
X005098Y007683D01*
X005100Y007700D01*
X005200Y007700D02*
X005202Y007683D01*
X005206Y007666D01*
X005213Y007650D01*
X005223Y007636D01*
X005236Y007623D01*
X005250Y007613D01*
X005266Y007606D01*
X005283Y007602D01*
X005300Y007600D01*
X005900Y007600D01*
X005917Y007602D01*
X005934Y007606D01*
X005950Y007613D01*
X005964Y007623D01*
X005977Y007636D01*
X005987Y007650D01*
X005994Y007666D01*
X005998Y007683D01*
X006000Y007700D01*
X005900Y011400D02*
X005300Y011400D01*
X005283Y011402D01*
X005266Y011406D01*
X005250Y011413D01*
X005236Y011423D01*
X005223Y011436D01*
X005213Y011450D01*
X005206Y011466D01*
X005202Y011483D01*
X005200Y011500D01*
X005200Y011650D01*
X005250Y011700D01*
X005250Y013100D01*
X005200Y013150D01*
X005200Y013300D01*
X005100Y013300D02*
X005100Y013150D01*
X005050Y013100D01*
X005050Y011700D01*
X005100Y011650D01*
X005100Y011500D01*
X005098Y011483D01*
X005094Y011466D01*
X005087Y011450D01*
X005077Y011436D01*
X005064Y011423D01*
X005050Y011413D01*
X005034Y011406D01*
X005017Y011402D01*
X005000Y011400D01*
X004400Y011400D01*
X004383Y011402D01*
X004366Y011406D01*
X004350Y011413D01*
X004336Y011423D01*
X004323Y011436D01*
X004313Y011450D01*
X004306Y011466D01*
X004302Y011483D01*
X004300Y011500D01*
X004300Y011650D01*
X004350Y011700D01*
X004350Y013100D01*
X004300Y013150D01*
X004300Y013300D01*
X004302Y013317D01*
X004306Y013334D01*
X004313Y013350D01*
X004323Y013364D01*
X004336Y013377D01*
X004350Y013387D01*
X004366Y013394D01*
X004383Y013398D01*
X004400Y013400D01*
X005000Y013400D01*
X005017Y013398D01*
X005034Y013394D01*
X005050Y013387D01*
X005064Y013377D01*
X005077Y013364D01*
X005087Y013350D01*
X005094Y013334D01*
X005098Y013317D01*
X005100Y013300D01*
X005200Y013300D02*
X005202Y013317D01*
X005206Y013334D01*
X005213Y013350D01*
X005223Y013364D01*
X005236Y013377D01*
X005250Y013387D01*
X005266Y013394D01*
X005283Y013398D01*
X005300Y013400D01*
X005900Y013400D01*
X005917Y013398D01*
X005934Y013394D01*
X005950Y013387D01*
X005964Y013377D01*
X005977Y013364D01*
X005987Y013350D01*
X005994Y013334D01*
X005998Y013317D01*
X006000Y013300D01*
X006000Y013150D01*
X005950Y013100D01*
X005950Y011700D01*
X006000Y011650D01*
X006000Y011500D01*
X005998Y011483D01*
X005994Y011466D01*
X005987Y011450D01*
X005977Y011436D01*
X005964Y011423D01*
X005950Y011413D01*
X005934Y011406D01*
X005917Y011402D01*
X005900Y011400D01*
X006200Y011500D02*
X006200Y011650D01*
X006250Y011700D01*
X006250Y013100D01*
X006200Y013150D01*
X006200Y013300D01*
X006202Y013317D01*
X006206Y013334D01*
X006213Y013350D01*
X006223Y013364D01*
X006236Y013377D01*
X006250Y013387D01*
X006266Y013394D01*
X006283Y013398D01*
X006300Y013400D01*
X006900Y013400D01*
X006917Y013398D01*
X006934Y013394D01*
X006950Y013387D01*
X006964Y013377D01*
X006977Y013364D01*
X006987Y013350D01*
X006994Y013334D01*
X006998Y013317D01*
X007000Y013300D01*
X007000Y013150D01*
X006950Y013100D01*
X006950Y011700D01*
X007000Y011650D01*
X007000Y011500D01*
X006998Y011483D01*
X006994Y011466D01*
X006987Y011450D01*
X006977Y011436D01*
X006964Y011423D01*
X006950Y011413D01*
X006934Y011406D01*
X006917Y011402D01*
X006900Y011400D01*
X006300Y011400D01*
X006283Y011402D01*
X006266Y011406D01*
X006250Y011413D01*
X006236Y011423D01*
X006223Y011436D01*
X006213Y011450D01*
X006206Y011466D01*
X006202Y011483D01*
X006200Y011500D01*
X006250Y016650D02*
X007550Y016650D01*
X007576Y016652D01*
X007602Y016657D01*
X007627Y016665D01*
X007650Y016677D01*
X007672Y016691D01*
X007691Y016709D01*
X007709Y016728D01*
X007723Y016750D01*
X007735Y016773D01*
X007743Y016798D01*
X007748Y016824D01*
X007750Y016850D01*
X007750Y017350D01*
X007748Y017376D01*
X007743Y017402D01*
X007735Y017427D01*
X007723Y017450D01*
X007709Y017472D01*
X007691Y017491D01*
X007672Y017509D01*
X007650Y017523D01*
X007627Y017535D01*
X007602Y017543D01*
X007576Y017548D01*
X007550Y017550D01*
X006250Y017550D01*
X006224Y017548D01*
X006198Y017543D01*
X006173Y017535D01*
X006150Y017523D01*
X006128Y017509D01*
X006109Y017491D01*
X006091Y017472D01*
X006077Y017450D01*
X006065Y017427D01*
X006057Y017402D01*
X006052Y017376D01*
X006050Y017350D01*
X006050Y016850D01*
X005950Y016850D02*
X005950Y017350D01*
X005948Y017376D01*
X005943Y017402D01*
X005935Y017427D01*
X005923Y017450D01*
X005909Y017472D01*
X005891Y017491D01*
X005872Y017509D01*
X005850Y017523D01*
X005827Y017535D01*
X005802Y017543D01*
X005776Y017548D01*
X005750Y017550D01*
X004450Y017550D01*
X004424Y017548D01*
X004398Y017543D01*
X004373Y017535D01*
X004350Y017523D01*
X004328Y017509D01*
X004309Y017491D01*
X004291Y017472D01*
X004277Y017450D01*
X004265Y017427D01*
X004257Y017402D01*
X004252Y017376D01*
X004250Y017350D01*
X004250Y016850D01*
X004252Y016824D01*
X004257Y016798D01*
X004265Y016773D01*
X004277Y016750D01*
X004291Y016728D01*
X004309Y016709D01*
X004328Y016691D01*
X004350Y016677D01*
X004373Y016665D01*
X004398Y016657D01*
X004424Y016652D01*
X004450Y016650D01*
X005750Y016650D01*
X005776Y016652D01*
X005802Y016657D01*
X005827Y016665D01*
X005850Y016677D01*
X005872Y016691D01*
X005891Y016709D01*
X005909Y016728D01*
X005923Y016750D01*
X005935Y016773D01*
X005943Y016798D01*
X005948Y016824D01*
X005950Y016850D01*
X006050Y016850D02*
X006052Y016824D01*
X006057Y016798D01*
X006065Y016773D01*
X006077Y016750D01*
X006091Y016728D01*
X006109Y016709D01*
X006128Y016691D01*
X006150Y016677D01*
X006173Y016665D01*
X006198Y016657D01*
X006224Y016652D01*
X006250Y016650D01*
X007950Y016850D02*
X007950Y017350D01*
X007952Y017376D01*
X007957Y017402D01*
X007965Y017427D01*
X007977Y017450D01*
X007991Y017472D01*
X008009Y017491D01*
X008028Y017509D01*
X008050Y017523D01*
X008073Y017535D01*
X008098Y017543D01*
X008124Y017548D01*
X008150Y017550D01*
X009450Y017550D01*
X009476Y017548D01*
X009502Y017543D01*
X009527Y017535D01*
X009550Y017523D01*
X009572Y017509D01*
X009591Y017491D01*
X009609Y017472D01*
X009623Y017450D01*
X009635Y017427D01*
X009643Y017402D01*
X009648Y017376D01*
X009650Y017350D01*
X009650Y016850D01*
X009750Y016700D02*
X009750Y017500D01*
X009752Y017517D01*
X009756Y017534D01*
X009763Y017550D01*
X009773Y017564D01*
X009786Y017577D01*
X009800Y017587D01*
X009816Y017594D01*
X009833Y017598D01*
X009850Y017600D01*
X011550Y017600D01*
X011567Y017598D01*
X011584Y017594D01*
X011600Y017587D01*
X011614Y017577D01*
X011627Y017564D01*
X011637Y017550D01*
X011644Y017534D01*
X011648Y017517D01*
X011650Y017500D01*
X011650Y016700D01*
X011648Y016683D01*
X011644Y016666D01*
X011637Y016650D01*
X011627Y016636D01*
X011614Y016623D01*
X011600Y016613D01*
X011584Y016606D01*
X011567Y016602D01*
X011550Y016600D01*
X009850Y016600D01*
X009833Y016602D01*
X009816Y016606D01*
X009800Y016613D01*
X009786Y016623D01*
X009773Y016636D01*
X009763Y016650D01*
X009756Y016666D01*
X009752Y016683D01*
X009750Y016700D01*
X009450Y016650D02*
X008150Y016650D01*
X008124Y016652D01*
X008098Y016657D01*
X008073Y016665D01*
X008050Y016677D01*
X008028Y016691D01*
X008009Y016709D01*
X007991Y016728D01*
X007977Y016750D01*
X007965Y016773D01*
X007957Y016798D01*
X007952Y016824D01*
X007950Y016850D01*
X009450Y016650D02*
X009476Y016652D01*
X009502Y016657D01*
X009527Y016665D01*
X009550Y016677D01*
X009572Y016691D01*
X009591Y016709D01*
X009609Y016728D01*
X009623Y016750D01*
X009635Y016773D01*
X009643Y016798D01*
X009648Y016824D01*
X009650Y016850D01*
X010550Y017100D02*
X010600Y017100D01*
X010800Y017100D02*
X010850Y017100D01*
X011750Y016700D02*
X011750Y017500D01*
X011752Y017517D01*
X011756Y017534D01*
X011763Y017550D01*
X011773Y017564D01*
X011786Y017577D01*
X011800Y017587D01*
X011816Y017594D01*
X011833Y017598D01*
X011850Y017600D01*
X013550Y017600D01*
X013567Y017598D01*
X013584Y017594D01*
X013600Y017587D01*
X013614Y017577D01*
X013627Y017564D01*
X013637Y017550D01*
X013644Y017534D01*
X013648Y017517D01*
X013650Y017500D01*
X013650Y016700D01*
X013648Y016683D01*
X013644Y016666D01*
X013637Y016650D01*
X013627Y016636D01*
X013614Y016623D01*
X013600Y016613D01*
X013584Y016606D01*
X013567Y016602D01*
X013550Y016600D01*
X011850Y016600D01*
X011833Y016602D01*
X011816Y016606D01*
X011800Y016613D01*
X011786Y016623D01*
X011773Y016636D01*
X011763Y016650D01*
X011756Y016666D01*
X011752Y016683D01*
X011750Y016700D01*
X012550Y017100D02*
X012600Y017100D01*
X012800Y017100D02*
X012850Y017100D01*
D12*
X010530Y015795D02*
X010109Y015795D01*
X010319Y015795D02*
X010319Y016426D01*
X010109Y016215D01*
X009885Y016320D02*
X009780Y016426D01*
X009570Y016426D01*
X009465Y016320D01*
X009465Y015900D01*
X009570Y015795D01*
X009780Y015795D01*
X009885Y015900D01*
X009245Y015795D02*
X009035Y015795D01*
X009140Y015795D02*
X009140Y016426D01*
X009035Y016426D02*
X009245Y016426D01*
D13*
X005700Y005550D02*
X005700Y002850D01*
X005698Y002799D01*
X005693Y002748D01*
X005683Y002698D01*
X005670Y002648D01*
X005654Y002600D01*
X005634Y002553D01*
X005610Y002507D01*
X005584Y002464D01*
X005554Y002422D01*
X005521Y002383D01*
X005486Y002346D01*
X005448Y002312D01*
X005407Y002281D01*
X005365Y002252D01*
X005320Y002227D01*
X005274Y002206D01*
X005226Y002187D01*
X005177Y002173D01*
X005127Y002162D01*
X005077Y002154D01*
X005026Y002150D01*
X004974Y002150D01*
X004923Y002154D01*
X004873Y002162D01*
X004823Y002173D01*
X004774Y002187D01*
X004726Y002206D01*
X004680Y002227D01*
X004635Y002252D01*
X004593Y002281D01*
X004552Y002312D01*
X004514Y002346D01*
X004479Y002383D01*
X004446Y002422D01*
X004416Y002464D01*
X004390Y002507D01*
X004366Y002553D01*
X004346Y002600D01*
X004330Y002648D01*
X004317Y002698D01*
X004307Y002748D01*
X004302Y002799D01*
X004300Y002850D01*
X004300Y005550D01*
X004302Y005601D01*
X004307Y005652D01*
X004317Y005702D01*
X004330Y005752D01*
X004346Y005800D01*
X004366Y005847D01*
X004390Y005893D01*
X004416Y005936D01*
X004446Y005978D01*
X004479Y006017D01*
X004514Y006054D01*
X004552Y006088D01*
X004593Y006119D01*
X004635Y006148D01*
X004680Y006173D01*
X004726Y006194D01*
X004774Y006213D01*
X004823Y006227D01*
X004873Y006238D01*
X004923Y006246D01*
X004974Y006250D01*
X005026Y006250D01*
X005077Y006246D01*
X005127Y006238D01*
X005177Y006227D01*
X005226Y006213D01*
X005274Y006194D01*
X005320Y006173D01*
X005365Y006148D01*
X005407Y006119D01*
X005448Y006088D01*
X005486Y006054D01*
X005521Y006017D01*
X005554Y005978D01*
X005584Y005936D01*
X005610Y005893D01*
X005634Y005847D01*
X005654Y005800D01*
X005670Y005752D01*
X005683Y005702D01*
X005693Y005652D01*
X005698Y005601D01*
X005700Y005550D01*
D14*
X005750Y005625D02*
X006050Y005625D01*
X006125Y005700D01*
X006125Y005850D01*
X006050Y005925D01*
X006075Y005915D02*
X006525Y005915D01*
X006525Y005765D02*
X006525Y006065D01*
X006125Y006160D02*
X006125Y006311D01*
X006050Y006386D01*
X005975Y006386D01*
X005900Y006311D01*
X005900Y006236D01*
X005900Y006311D02*
X005825Y006386D01*
X005750Y006386D01*
X005675Y006311D01*
X005675Y006160D01*
X005750Y006085D01*
X005750Y005925D02*
X005675Y005850D01*
X005675Y005700D01*
X005750Y005625D01*
X006075Y005529D02*
X006150Y005604D01*
X006450Y005604D01*
X006525Y005529D01*
X006525Y005379D01*
X006450Y005304D01*
X006150Y005304D01*
X006075Y005379D01*
X006075Y005529D01*
X006225Y005765D02*
X006075Y005915D01*
X006050Y006085D02*
X006125Y006160D01*
X006525Y005604D02*
X006375Y005454D01*
X007275Y004915D02*
X007425Y004765D01*
X007350Y004604D02*
X007275Y004529D01*
X007275Y004379D01*
X007350Y004304D01*
X007650Y004304D01*
X007725Y004379D01*
X007725Y004529D01*
X007650Y004604D01*
X007725Y004765D02*
X007725Y005065D01*
X007725Y004915D02*
X007275Y004915D01*
X007350Y003265D02*
X007275Y003190D01*
X007275Y003040D01*
X007350Y002965D01*
X007350Y002804D02*
X007275Y002729D01*
X007275Y002579D01*
X007350Y002504D01*
X007650Y002504D01*
X007725Y002579D01*
X007725Y002729D01*
X007650Y002804D01*
X007725Y002965D02*
X007425Y003265D01*
X007350Y003265D01*
X007725Y003265D02*
X007725Y002965D01*
X009400Y008275D02*
X009550Y008275D01*
X009625Y008350D01*
X009785Y008350D02*
X009860Y008275D01*
X010011Y008275D01*
X010086Y008350D01*
X010086Y008650D01*
X010011Y008725D01*
X009860Y008725D01*
X009785Y008650D01*
X009785Y008575D01*
X009860Y008500D01*
X010086Y008500D01*
X009625Y008650D02*
X009550Y008725D01*
X009400Y008725D01*
X009325Y008650D01*
X009325Y008350D01*
X009400Y008275D01*
X014600Y010300D02*
X023600Y010300D01*
X023600Y019300D01*
X014600Y019300D01*
X014600Y010300D01*
X018644Y006750D02*
X018644Y006450D01*
X018719Y006375D01*
X018869Y006375D01*
X018944Y006450D01*
X019104Y006375D02*
X019404Y006375D01*
X019254Y006375D02*
X019254Y006825D01*
X019104Y006675D01*
X018944Y006750D02*
X018869Y006825D01*
X018719Y006825D01*
X018644Y006750D01*
X019565Y006750D02*
X019565Y006450D01*
X019865Y006750D01*
X019865Y006450D01*
X019790Y006375D01*
X019640Y006375D01*
X019565Y006450D01*
X019565Y006750D02*
X019640Y006825D01*
X019790Y006825D01*
X019865Y006750D01*
X021700Y010300D02*
X030700Y010300D01*
X030700Y019300D01*
X021700Y019300D01*
X021700Y010300D01*
X013390Y016025D02*
X013390Y016475D01*
X013165Y016250D01*
X013465Y016250D01*
X013004Y016100D02*
X012929Y016025D01*
X012779Y016025D01*
X012704Y016100D01*
X012704Y016400D01*
X012779Y016475D01*
X012929Y016475D01*
X013004Y016400D01*
X011000Y017800D02*
X011000Y019500D01*
X009800Y019500D01*
X009800Y019700D01*
X009200Y019700D01*
X009200Y019500D01*
X009800Y019500D01*
X009800Y019700D02*
X011000Y019700D01*
X011000Y019500D01*
X010586Y018175D02*
X010436Y018100D01*
X010285Y017950D01*
X010511Y017950D01*
X010586Y017875D01*
X010586Y017800D01*
X010511Y017725D01*
X010360Y017725D01*
X010285Y017800D01*
X010285Y017950D01*
X010125Y017800D02*
X010050Y017725D01*
X009900Y017725D01*
X009825Y017800D01*
X009825Y018100D01*
X009900Y018175D01*
X010050Y018175D01*
X010125Y018100D01*
X011000Y017800D02*
X008000Y017800D01*
X008000Y019500D01*
X009200Y019500D01*
X009200Y019700D02*
X008000Y019700D01*
X008000Y019500D01*
X008200Y018125D02*
X008125Y018050D01*
X008125Y017750D01*
X008200Y017675D01*
X008350Y017675D01*
X008425Y017750D01*
X008585Y017750D02*
X008660Y017675D01*
X008811Y017675D01*
X008886Y017750D01*
X008886Y017900D01*
X008811Y017975D01*
X008736Y017975D01*
X008585Y017900D01*
X008585Y018125D01*
X008886Y018125D01*
X008425Y018050D02*
X008350Y018125D01*
X008200Y018125D01*
X007465Y016525D02*
X007165Y016525D01*
X007004Y016450D02*
X006929Y016525D01*
X006779Y016525D01*
X006704Y016450D01*
X006704Y016150D01*
X006779Y016075D01*
X006929Y016075D01*
X007004Y016150D01*
X007165Y016150D02*
X007165Y016075D01*
X007165Y016150D02*
X007465Y016450D01*
X007465Y016525D01*
X005186Y017750D02*
X005111Y017675D01*
X004960Y017675D01*
X004885Y017750D01*
X004885Y017825D01*
X004960Y017900D01*
X005111Y017900D01*
X005186Y017825D01*
X005186Y017750D01*
X005111Y017900D02*
X005186Y017975D01*
X005186Y018050D01*
X005111Y018125D01*
X004960Y018125D01*
X004885Y018050D01*
X004885Y017975D01*
X004960Y017900D01*
X004725Y017750D02*
X004650Y017675D01*
X004500Y017675D01*
X004425Y017750D01*
X004425Y018050D01*
X004500Y018125D01*
X004650Y018125D01*
X004725Y018050D01*
D15*
X004980Y017400D02*
X004980Y016800D01*
X005230Y016800D02*
X005230Y017400D01*
X006770Y017400D02*
X006770Y016800D01*
X007020Y016800D02*
X007020Y017400D01*
X008680Y017400D02*
X008680Y016800D01*
X008930Y016800D02*
X008930Y017400D01*
X009880Y008000D02*
X009880Y007400D01*
X010130Y007400D02*
X010130Y008000D01*
X007000Y006430D02*
X006400Y006430D01*
X006400Y006180D02*
X007000Y006180D01*
X007000Y004620D02*
X006400Y004620D01*
X006400Y004370D02*
X007000Y004370D01*
X007000Y002820D02*
X006400Y002820D01*
X006400Y002570D02*
X007000Y002570D01*
X019170Y007100D02*
X019170Y007700D01*
X019420Y007700D02*
X019420Y007100D01*
D16*
X014300Y004500D02*
X013300Y004500D01*
X013300Y001500D01*
X014300Y001500D01*
X014300Y004500D01*
X013800Y003600D02*
X013800Y003300D01*
X013400Y002800D01*
X014200Y002800D01*
X013800Y003300D01*
X013800Y002500D01*
X013400Y003300D02*
X014200Y003300D01*
X003550Y009200D02*
X002800Y009200D01*
X002800Y017200D01*
X003550Y017200D01*
X003550Y009200D01*
X002800Y009200D02*
X001050Y009200D01*
X001050Y017200D01*
X002800Y017200D01*
X004125Y017916D02*
X004125Y020869D01*
X003338Y020869D01*
X003338Y027955D01*
X008062Y027955D01*
X008062Y020869D01*
X007275Y020869D01*
X007275Y017916D01*
X004125Y017916D01*
X004200Y019800D02*
X007200Y019800D01*
X007200Y020800D01*
X004200Y020800D01*
X004200Y019800D01*
X005100Y020300D02*
X005400Y020300D01*
X005900Y019900D01*
X005900Y020700D01*
X005400Y020300D01*
X006200Y020300D01*
X005400Y019900D02*
X005400Y020700D01*
X008000Y020800D02*
X008000Y019800D01*
X011000Y019800D01*
X011000Y020800D01*
X008000Y020800D01*
X008900Y020300D02*
X009200Y020300D01*
X009700Y019900D01*
X009700Y020700D01*
X009200Y020300D01*
X010000Y020300D01*
X009200Y019900D02*
X009200Y020700D01*
X010600Y017400D02*
X010600Y017100D01*
X010600Y016800D01*
X010800Y016800D02*
X010800Y017100D01*
X010800Y017400D01*
X012600Y017400D02*
X012600Y017100D01*
X012600Y016800D01*
X012800Y016800D02*
X012800Y017100D01*
X012800Y017400D01*
D17*
X012931Y017450D02*
X012624Y017450D01*
X012470Y017373D02*
X012470Y017297D01*
X012394Y017220D01*
X012164Y017220D01*
X012164Y017680D01*
X012394Y017680D01*
X012470Y017604D01*
X012470Y017527D01*
X012394Y017450D01*
X012164Y017450D01*
X012010Y017450D02*
X011703Y017450D01*
X011550Y017373D02*
X011550Y017297D01*
X011473Y017220D01*
X011243Y017220D01*
X011243Y017680D01*
X011473Y017680D01*
X011550Y017604D01*
X011550Y017527D01*
X011473Y017450D01*
X011243Y017450D01*
X011089Y017373D02*
X011089Y017297D01*
X011013Y017220D01*
X010859Y017220D01*
X010782Y017297D01*
X010629Y017297D02*
X010552Y017220D01*
X010399Y017220D01*
X010322Y017297D01*
X010168Y017297D02*
X010168Y017604D01*
X010092Y017680D01*
X009938Y017680D01*
X009862Y017604D01*
X009862Y017527D01*
X009938Y017450D01*
X010168Y017450D01*
X010168Y017297D02*
X010092Y017220D01*
X009938Y017220D01*
X009862Y017297D01*
X009708Y017220D02*
X009401Y017220D01*
X009708Y017527D01*
X009708Y017604D01*
X009631Y017680D01*
X009478Y017680D01*
X009401Y017604D01*
X009248Y017604D02*
X009171Y017680D01*
X009018Y017680D01*
X008941Y017604D01*
X008941Y017297D01*
X009018Y017220D01*
X009171Y017220D01*
X009248Y017297D01*
X008787Y017450D02*
X008711Y017373D01*
X008480Y017373D01*
X008480Y017220D02*
X008480Y017680D01*
X008711Y017680D01*
X008787Y017604D01*
X008787Y017450D01*
X008327Y017297D02*
X008327Y017680D01*
X008020Y017680D02*
X008020Y017297D01*
X008097Y017220D01*
X008250Y017220D01*
X008327Y017297D01*
X006990Y018820D02*
X006836Y018820D01*
X006760Y018897D01*
X006760Y019050D02*
X006913Y019127D01*
X006990Y019127D01*
X007067Y019050D01*
X007067Y018897D01*
X006990Y018820D01*
X006760Y019050D02*
X006760Y019280D01*
X007067Y019280D01*
X006606Y019204D02*
X006606Y018897D01*
X006529Y018820D01*
X006299Y018820D01*
X006299Y019280D01*
X006529Y019280D01*
X006606Y019204D01*
X008020Y019820D02*
X008020Y020280D01*
X008250Y020280D01*
X008327Y020204D01*
X008327Y020050D01*
X008250Y019973D01*
X008020Y019973D01*
X008173Y019973D02*
X008327Y019820D01*
X008480Y019820D02*
X008787Y019820D01*
X008941Y019897D02*
X008941Y020204D01*
X009018Y020280D01*
X009171Y020280D01*
X009248Y020204D01*
X009248Y020050D02*
X009094Y020050D01*
X009248Y020050D02*
X009248Y019897D01*
X009171Y019820D01*
X009018Y019820D01*
X008941Y019897D01*
X008634Y020050D02*
X008480Y020050D01*
X008480Y020280D02*
X008480Y019820D01*
X008480Y020280D02*
X008787Y020280D01*
X009401Y020127D02*
X009555Y020280D01*
X009555Y019820D01*
X009708Y019820D02*
X009401Y019820D01*
X010099Y019280D02*
X010329Y019280D01*
X010406Y019204D01*
X010406Y018897D01*
X010329Y018820D01*
X010099Y018820D01*
X010099Y019280D01*
X010560Y019127D02*
X010713Y019280D01*
X010713Y018820D01*
X010560Y018820D02*
X010867Y018820D01*
X010859Y017680D02*
X010782Y017604D01*
X010859Y017680D02*
X011013Y017680D01*
X011089Y017604D01*
X011089Y017527D01*
X011013Y017450D01*
X011089Y017373D01*
X011013Y017450D02*
X010936Y017450D01*
X010629Y017373D02*
X010629Y017297D01*
X010629Y017373D02*
X010552Y017450D01*
X010475Y017450D01*
X010552Y017450D02*
X010629Y017527D01*
X010629Y017604D01*
X010552Y017680D01*
X010399Y017680D01*
X010322Y017604D01*
X011473Y017450D02*
X011550Y017373D01*
X011703Y017220D02*
X011703Y017680D01*
X012010Y017680D02*
X012010Y017220D01*
X012394Y017450D02*
X012470Y017373D01*
X013084Y017450D02*
X013391Y017450D01*
X013391Y017527D02*
X013391Y017220D01*
X013545Y017220D02*
X013852Y017220D01*
X013545Y017220D02*
X013545Y017297D01*
X013852Y017604D01*
X013852Y017680D01*
X013545Y017680D01*
X013391Y017527D02*
X013238Y017680D01*
X013084Y017527D01*
X013084Y017220D01*
X007480Y013294D02*
X007480Y013061D01*
X007246Y013294D01*
X007188Y013294D01*
X007130Y013236D01*
X007130Y013119D01*
X007188Y013061D01*
X007188Y012935D02*
X007305Y012935D01*
X007363Y012877D01*
X007363Y012702D01*
X007363Y012819D02*
X007480Y012935D01*
X007480Y012702D02*
X007130Y012702D01*
X007130Y012877D01*
X007188Y012935D01*
X005580Y012935D02*
X005463Y012819D01*
X005463Y012877D02*
X005463Y012702D01*
X005580Y012702D02*
X005230Y012702D01*
X005230Y012877D01*
X005288Y012935D01*
X005405Y012935D01*
X005463Y012877D01*
X005405Y013061D02*
X005230Y013061D01*
X005230Y013294D01*
X005346Y013236D02*
X005346Y013178D01*
X005405Y013061D01*
X005522Y013061D02*
X005580Y013119D01*
X005580Y013236D01*
X005522Y013294D01*
X005405Y013294D01*
X005346Y013236D01*
X005070Y012013D02*
X005070Y011779D01*
X005070Y011896D02*
X004720Y011896D01*
X004836Y011779D01*
X004778Y011654D02*
X004895Y011654D01*
X004953Y011595D01*
X004953Y011420D01*
X004953Y011537D02*
X005070Y011654D01*
X005070Y011420D02*
X004720Y011420D01*
X004720Y011595D01*
X004778Y011654D01*
X006130Y009436D02*
X006305Y009261D01*
X006305Y009494D01*
X006480Y009436D02*
X006130Y009436D01*
X006188Y009135D02*
X006305Y009135D01*
X006363Y009077D01*
X006363Y008902D01*
X006363Y009019D02*
X006480Y009135D01*
X006480Y008902D02*
X006130Y008902D01*
X006130Y009077D01*
X006188Y009135D01*
X004170Y008154D02*
X004170Y008037D01*
X004112Y007979D01*
X004170Y007854D02*
X004053Y007737D01*
X004053Y007795D02*
X004053Y007620D01*
X004170Y007620D02*
X003820Y007620D01*
X003820Y007795D01*
X003878Y007854D01*
X003995Y007854D01*
X004053Y007795D01*
X003878Y007979D02*
X003820Y008037D01*
X003820Y008154D01*
X003878Y008213D01*
X003936Y008213D01*
X003995Y008154D01*
X004053Y008213D01*
X004112Y008213D01*
X004170Y008154D01*
X003995Y008154D02*
X003995Y008096D01*
X012320Y002211D02*
X012320Y002057D01*
X012396Y001980D01*
X012396Y001827D02*
X012320Y001750D01*
X012320Y001520D01*
X012780Y001520D01*
X012780Y001750D01*
X012703Y001827D01*
X012396Y001827D01*
X012320Y002211D02*
X012396Y002287D01*
X012473Y002287D01*
X012780Y001980D01*
X012780Y002287D01*
X019720Y003237D02*
X020180Y003237D01*
X019950Y003237D02*
X019950Y003544D01*
X020103Y003697D02*
X019796Y003697D01*
X019720Y003774D01*
X019720Y003927D01*
X019796Y004004D01*
X019950Y004158D02*
X019950Y004465D01*
X020103Y004618D02*
X019796Y004618D01*
X019720Y004695D01*
X019720Y004848D01*
X019796Y004925D01*
X020103Y004618D01*
X020180Y004695D01*
X020180Y004848D01*
X020103Y004925D01*
X019796Y004925D01*
X019720Y005078D02*
X019950Y005078D01*
X019873Y005232D01*
X019873Y005309D01*
X019950Y005385D01*
X020103Y005385D01*
X020180Y005309D01*
X020180Y005155D01*
X020103Y005078D01*
X020103Y005539D02*
X019796Y005539D01*
X019720Y005616D01*
X019720Y005769D01*
X019796Y005846D01*
X020103Y005539D01*
X020180Y005616D01*
X020180Y005769D01*
X020103Y005846D01*
X019796Y005846D01*
X019720Y005999D02*
X019720Y006229D01*
X019796Y006306D01*
X019873Y006306D01*
X019950Y006229D01*
X019950Y005999D01*
X020180Y005999D02*
X020180Y006229D01*
X020103Y006306D01*
X020027Y006306D01*
X019950Y006229D01*
X019950Y006460D02*
X019950Y006613D01*
X020180Y006460D02*
X019720Y006460D01*
X019720Y006767D01*
X019720Y005999D02*
X020180Y005999D01*
X019720Y005385D02*
X019720Y005078D01*
X019720Y004388D02*
X019950Y004158D01*
X020103Y004004D02*
X020180Y003927D01*
X020180Y003774D01*
X020103Y003697D01*
X020180Y003544D02*
X019720Y003544D01*
X019720Y004388D02*
X020180Y004388D01*
X004180Y016483D02*
X003820Y016724D01*
X003940Y016852D02*
X003820Y016972D01*
X004180Y016972D01*
X004180Y016852D02*
X004180Y017092D01*
X004180Y016724D02*
X003820Y016483D01*
X008970Y026442D02*
X008970Y026596D01*
X008970Y026519D02*
X009430Y026519D01*
X009430Y026442D02*
X009430Y026596D01*
X009353Y026749D02*
X009046Y026749D01*
X008970Y026826D01*
X008970Y026979D01*
X009046Y027056D01*
X009046Y027210D02*
X008970Y027286D01*
X008970Y027440D01*
X009046Y027517D01*
X009123Y027517D01*
X009430Y027210D01*
X009430Y027517D01*
X009353Y027056D02*
X009430Y026979D01*
X009430Y026826D01*
X009353Y026749D01*
D18*
X020063Y015464D02*
X020015Y015415D01*
X020015Y015319D01*
X020063Y015270D01*
X020015Y015169D02*
X020305Y014976D01*
X020305Y015169D02*
X020015Y014976D01*
X020305Y015270D02*
X020112Y015464D01*
X020063Y015464D01*
X020305Y015464D02*
X020305Y015270D01*
X027115Y015319D02*
X027115Y015415D01*
X027163Y015464D01*
X027212Y015464D01*
X027260Y015415D01*
X027308Y015464D01*
X027357Y015464D01*
X027405Y015415D01*
X027405Y015319D01*
X027357Y015270D01*
X027405Y015169D02*
X027115Y014976D01*
X027115Y015169D02*
X027405Y014976D01*
X027163Y015270D02*
X027115Y015319D01*
X027260Y015367D02*
X027260Y015415D01*
D19*
X006600Y013475D03*
X005600Y013475D03*
X004700Y013475D03*
X004700Y011325D03*
X005600Y011325D03*
X006600Y011325D03*
X005600Y009675D03*
X004700Y009675D03*
X004700Y007525D03*
X005600Y007525D03*
M02*
