%
M48
M72
T01C0.0240
T02C0.0310
T03C0.0320
T04C0.0390
T05C0.0400
T06C0.1260
%
T01
X27890Y3200
X27890Y5200
T02
X15090Y4900
X15090Y5900
X15090Y6900
X15090Y7900
X15090Y8900
X11990Y8900
X11990Y7900
X11990Y6900
X11990Y5900
X11990Y4900
X11990Y3900
X11990Y2900
X11990Y1900
X15090Y1900
X15090Y2900
X15090Y3900
T03
X14090Y7400
X13090Y7400
X21390Y7700
X22390Y7700
X23390Y7700
X24390Y7700
X24390Y8700
X24390Y9700
X24390Y10700
X24390Y11700
X24390Y12700
X24390Y13700
X24390Y14700
X26290Y13900
X27290Y13900
X28190Y13900
X28190Y10900
X28190Y10100
X27290Y10100
X27290Y10900
X26290Y10900
X27290Y7100
X28190Y7100
X26190Y6800
X26190Y5800
X26190Y5000
X26190Y4000
X26190Y3200
X26190Y2200
X24390Y1700
X24390Y2700
X24390Y3700
X24390Y4700
X24390Y5700
X24390Y6700
X21390Y6700
X21390Y5700
X21390Y4700
X21390Y3700
X21390Y2700
X21390Y1700
X21390Y8700
X21390Y9700
X21390Y10700
X21390Y11700
X21390Y12700
X21390Y13700
X21390Y14700
X21690Y17100
X22690Y17100
X23590Y17100
X24590Y17100
X25490Y17100
X26490Y17100
X27290Y17100
X28290Y17100
X20690Y17100
X19690Y17100
T04
X20690Y18500
X22390Y18600
X23390Y18600
X24390Y18600
X26190Y18900
X27190Y18900
X28190Y18900
X28190Y20300
X26190Y20300
X24390Y20300
X22390Y20300
X24990Y16300
X25490Y14600
X27290Y15700
X28290Y16300
X30590Y16700
X30590Y15700
X30590Y14700
X30590Y13700
X30590Y12700
X30590Y11700
X30590Y10700
X30590Y9700
X20290Y6700
X17790Y8900
X16190Y6300
X16990Y4300
X19090Y4000
X19090Y2000
X19990Y11700
X15790Y19600
X14890Y19700
T05
X17290Y18300
X17290Y17300
X17290Y16300
X17290Y15300
X17290Y14300
X17290Y13300
X17290Y12300
X17290Y11300
X10190Y11300
X10190Y12300
X10190Y13300
X10190Y14300
X10190Y15300
X10190Y16300
X10190Y17300
X10190Y18300
T06
X9190Y1500
X9190Y20300
X31090Y20300
X31090Y1500
M30
