G75*
%MOIN*%
%OFA0B0*%
%FSLAX24Y24*%
%IPPOS*%
%LPD*%
%AMOC8*
5,1,8,0,0,1.08239X$1,22.5*
%
%ADD10C,0.1340*%
%ADD11C,0.0600*%
%ADD12C,0.0520*%
%ADD13OC8,0.0600*%
%ADD14C,0.0674*%
%ADD15R,0.0710X0.0710*%
%ADD16C,0.0710*%
%ADD17C,0.0674*%
%ADD18C,0.0595*%
%ADD19C,0.0671*%
D10*
X001800Y001500D03*
X001800Y020300D03*
X023700Y020300D03*
X023700Y001500D03*
D11*
X011760Y001700D02*
X011240Y001700D01*
X011240Y002700D02*
X011760Y002700D01*
X011760Y003700D02*
X011240Y003700D01*
X011240Y004700D02*
X011760Y004700D01*
X011760Y005700D02*
X011240Y005700D01*
X011240Y006700D02*
X011760Y006700D01*
X011760Y007700D02*
X011240Y007700D01*
X011240Y008700D02*
X011760Y008700D01*
X011760Y009700D02*
X011240Y009700D01*
X011240Y010700D02*
X011760Y010700D01*
X011760Y011700D02*
X011240Y011700D01*
X011240Y012700D02*
X011760Y012700D01*
X011760Y013700D02*
X011240Y013700D01*
X011240Y014700D02*
X011760Y014700D01*
X008760Y014700D02*
X008240Y014700D01*
X008240Y013700D02*
X008760Y013700D01*
X008760Y012700D02*
X008240Y012700D01*
X008240Y011700D02*
X008760Y011700D01*
X008760Y010700D02*
X008240Y010700D01*
X008240Y009700D02*
X008760Y009700D01*
X008760Y008700D02*
X008240Y008700D01*
X008240Y007700D02*
X008760Y007700D01*
X008760Y006700D02*
X008240Y006700D01*
X008240Y005700D02*
X008760Y005700D01*
X008760Y004700D02*
X008240Y004700D01*
X008240Y003700D02*
X008760Y003700D01*
X008760Y002700D02*
X008240Y002700D01*
X008240Y001700D02*
X008760Y001700D01*
D12*
X005220Y003200D02*
X004780Y003200D01*
X004780Y005200D02*
X005220Y005200D01*
D13*
X006700Y005000D03*
X006700Y005800D03*
X006700Y006800D03*
X005600Y007100D03*
X004700Y007100D03*
X004700Y010100D03*
X004700Y010900D03*
X005600Y010900D03*
X005600Y010100D03*
X006600Y010900D03*
X006600Y013900D03*
X005600Y013900D03*
X004700Y013900D03*
X004600Y017100D03*
X005600Y017100D03*
X006400Y017100D03*
X007400Y017100D03*
X008300Y017100D03*
X009300Y017100D03*
X010200Y017100D03*
X011200Y017100D03*
X012200Y017100D03*
X013200Y017100D03*
X010500Y007700D03*
X009500Y007700D03*
X006700Y004000D03*
X006700Y003200D03*
X006700Y002200D03*
X018800Y007400D03*
X019800Y007400D03*
D14*
X010500Y018303D02*
X010500Y018897D01*
X009500Y018897D02*
X009500Y018303D01*
X008500Y018303D02*
X008500Y018897D01*
X006700Y018603D02*
X006700Y019197D01*
X005700Y019197D02*
X005700Y018603D01*
X004700Y018603D02*
X004700Y019197D01*
X002597Y016700D02*
X002003Y016700D01*
X002003Y015700D02*
X002597Y015700D01*
X002597Y014700D02*
X002003Y014700D01*
X002003Y013700D02*
X002597Y013700D01*
X002597Y012700D02*
X002003Y012700D01*
X002003Y011700D02*
X002597Y011700D01*
X002597Y010700D02*
X002003Y010700D01*
X002003Y009700D02*
X002597Y009700D01*
D15*
X015600Y018300D03*
X022700Y018300D03*
D16*
X022700Y017300D03*
X022700Y016300D03*
X022700Y015300D03*
X022700Y014300D03*
X022700Y013300D03*
X022700Y012300D03*
X022700Y011300D03*
X015600Y011300D03*
X015600Y012300D03*
X015600Y013300D03*
X015600Y014300D03*
X015600Y015300D03*
X015600Y016300D03*
X015600Y017300D03*
D17*
X010500Y020300D03*
X008500Y020300D03*
X006700Y020300D03*
X004700Y020300D03*
X013800Y004000D03*
X013800Y002000D03*
D18*
X017543Y001900D02*
X018057Y001900D01*
X018057Y002900D02*
X017543Y002900D01*
X017543Y003900D02*
X018057Y003900D01*
X018057Y004900D02*
X017543Y004900D01*
X017543Y005900D02*
X018057Y005900D01*
X018057Y006900D02*
X017543Y006900D01*
X017543Y007900D02*
X018057Y007900D01*
X018057Y008900D02*
X017543Y008900D01*
X020643Y008900D02*
X021157Y008900D01*
X021157Y007900D02*
X020643Y007900D01*
X020643Y006900D02*
X021157Y006900D01*
X021157Y005900D02*
X020643Y005900D01*
X020643Y004900D02*
X021157Y004900D01*
X021157Y003900D02*
X020643Y003900D01*
X020643Y002900D02*
X021157Y002900D01*
X021157Y001900D02*
X020643Y001900D01*
D19*
X015900Y004300D03*
X016700Y006300D03*
X015100Y008900D03*
X012600Y006700D03*
X012900Y011700D03*
X007900Y016300D03*
X007400Y014600D03*
X005600Y015700D03*
X004600Y016300D03*
X012200Y018500D03*
X017100Y019600D03*
X018000Y019700D03*
M02*
