%
M48
M72
T01C0.0315
T02C0.0320
T03C0.0394
T04C0.1260
%
T01
X7160Y3267
X7160Y4267
X7160Y5267
X7160Y6267
X7160Y7267
X7160Y8267
X7160Y9267
X7160Y10267
X7160Y11267
X7160Y12267
X10260Y12267
X10260Y11267
X10260Y10267
X10260Y9267
X10260Y8267
X10260Y7267
X10260Y6267
X10260Y5267
X10260Y4267
X10260Y3267
T02
X13760Y8267
X13760Y9267
X15760Y9267
X15760Y8267
X17310Y6267
X19210Y6267
X15760Y12267
X15760Y13267
X12760Y13267
X12760Y12267
X9260Y12267
X8260Y12267
T03
X4760Y12767
X3760Y11767
X4760Y10767
X4260Y8267
X4260Y7267
X4260Y6267
X4260Y5267
X4260Y4267
X4260Y3267
X14260Y2767
X15260Y2767
X16260Y2767
X17260Y2767
X17760Y11767
X18760Y11767
X19760Y11767
T04
X1760Y2267
X1760Y14267
X20260Y14267
X20260Y2267
M30
