%
M48
M72
T01C0.0276
T02C0.0315
T03C0.0320
T04C0.0394
T05C0.0400
T06C0.0440
T07C0.0512
T08C0.1260
%
T01
X15420Y21420
X15420Y22381
X15420Y23320
T02
X18420Y22920
X18420Y21920
X18420Y20920
X18420Y19920
X18420Y18920
X18420Y17920
X18420Y16920
X18420Y15920
X21420Y15920
X21420Y16920
X21420Y17920
X21420Y18920
X21420Y19920
X21420Y20920
X21420Y21920
X21420Y22920
X21420Y23920
X21420Y24920
X18420Y24920
X18420Y23920
X18820Y12070
X17820Y12070
X15820Y12070
X14820Y12070
X21870Y6120
X24920Y6120
X18820Y3070
X17820Y3070
X14820Y3070
T03
X21070Y9070
X21070Y12070
X18470Y12920
X18470Y13920
X17270Y14820
X17170Y15620
X16270Y15270
X16120Y14470
X16120Y13470
X15270Y13270
X14270Y13270
X13270Y13420
X12320Y14520
X12570Y15370
X12570Y16370
X12620Y17270
X12620Y18270
X12370Y19070
X11220Y19270
X11220Y20270
X11220Y21270
X12370Y22070
X12920Y22770
X13920Y22870
X13920Y21870
X12920Y23770
X12120Y25120
X11220Y25270
X11220Y24270
X11220Y23270
X11220Y22270
X8220Y22270
X8220Y23270
X8220Y24270
X8220Y25270
X8220Y21270
X8220Y20270
X8220Y19270
X8220Y18270
X8220Y17270
X8220Y16270
X8220Y15270
X8220Y14270
X8220Y13270
X8220Y12270
X7270Y12020
X7270Y9020
X11220Y12270
X12320Y11520
X13270Y10420
X11220Y13270
X11220Y14270
X11220Y15270
X11220Y16270
X11220Y17270
X11220Y18270
X14020Y19670
X14270Y17820
X16270Y18270
X17020Y19670
X17270Y22520
X17270Y23520
X17620Y24470
X16620Y24470
X15120Y25120
X15470Y25670
X18470Y25670
X22370Y19270
X23370Y19270
X23370Y18070
X22370Y18070
X25170Y18720
X26170Y18720
X26920Y17870
X26920Y17070
X28220Y16370
X26870Y15370
X26720Y14120
X27270Y12070
X26270Y11670
X27270Y9070
X26270Y8670
X27470Y7670
X27470Y6870
X29720Y14120
X29870Y15370
X28220Y19370
X20270Y14820
X17170Y16620
X14270Y15920
T04
X15570Y15920
X23220Y14120
X24220Y13120
X25220Y14120
X25120Y15520
X29920Y12670
X29920Y11670
X29920Y10670
X29920Y9670
X29920Y8670
X29920Y7670
X29920Y6670
X29920Y5670
X29920Y4670
X28320Y4770
X27120Y6070
X28270Y6220
X26570Y3770
X28270Y9420
X28170Y10470
X10620Y5720
X10370Y6820
X5370Y8420
X4520Y6720
X2720Y6820
X2720Y7820
X2720Y8820
X2720Y9820
X2720Y10820
X2670Y12970
X2670Y13970
X5470Y13920
X5470Y14920
X5470Y15920
X5470Y16920
X5470Y17920
X2670Y18220
X2670Y17220
X2670Y16220
X5470Y12920
X5370Y11370
X2720Y5820
X2720Y4820
X1820Y20370
X3420Y20670
X3420Y21670
X3420Y22670
X3420Y23670
X3420Y24670
X6170Y24270
X6170Y23270
X6170Y22270
X6170Y25270
T05
X7070Y5720
X7070Y3720
T06
X12320Y3020
X12320Y7020
T07
X13820Y4070
X19820Y11070
T08
X1120Y3170
X27870Y3120
X29120Y25220
X1170Y25770
M30
