%
M48
M72
T01C0.0320
T02C0.0350
T03C0.0354
T04C0.0394
T05C0.0400
T06C0.1260
T07C0.1300
%
T01
X18972Y3247
X18972Y4247
X18972Y5247
X20224Y10037
X22202Y9903
X22202Y12903
X20224Y13037
T02
X15309Y6707
X14309Y6707
T03
X21175Y7216
X22175Y7216
T04
X22199Y5577
X22199Y3577
X18701Y7854
X17701Y7854
X17411Y11631
X16411Y11631
X15411Y11631
X14411Y11631
X13411Y11631
X20116Y15372
X21116Y15372
X22116Y15372
X23116Y15372
X11415Y18100
X11415Y19100
T05
X15188Y21301
X16268Y21301
X17348Y21301
X18428Y21301
X19508Y21301
X18968Y22301
X17888Y22301
X16808Y22301
X15728Y22301
T06
X1124Y2462
X1124Y23722
X34588Y23525
X34588Y2462
T07
X22278Y21801
X12418Y21801
M30
