%
M48
M72
T01C0.0276
T02C0.0315
T03C0.0320
T04C0.0394
T05C0.0400
T06C0.0440
T07C0.0591
T08C0.1260
%
T01
X20038Y1512
X20038Y2452
X20038Y3412
T02
X15881Y3313
X15881Y4313
X15881Y5313
X15881Y6313
X15881Y7313
X15881Y8313
X15881Y9313
X15881Y10313
X12781Y10313
X12781Y9313
X12781Y8313
X12781Y7313
X12781Y6313
X12781Y5313
X12781Y4313
X12781Y3313
X12781Y2313
X12781Y1313
X15881Y1313
X15881Y2313
X25266Y23438
X25266Y25800
T03
X21389Y26747
X21389Y27547
X14820Y26950
X14020Y26950
X12899Y26585
X12899Y27585
X11629Y24053
X11629Y23053
X11629Y22053
X11629Y21053
X11629Y20053
X11629Y19053
X11629Y18053
X11629Y17053
X11629Y16053
X11629Y15053
X11629Y14053
X11629Y13053
X11629Y12053
X11629Y11053
X12834Y11899
X13834Y11899
X13016Y14420
X13016Y15420
X12987Y16815
X12987Y17815
X14948Y17413
X14948Y15513
X16700Y16659
X18038Y18116
X19700Y16659
X21038Y18116
X21932Y16561
X20298Y14691
X20298Y13691
X19416Y13450
X19566Y11509
X21932Y13561
X16566Y11509
X16416Y13450
X17676Y6407
X18156Y3687
X18156Y2687
X17999Y1765
X17999Y765
X16928Y2694
X16928Y3694
X20676Y6407
X21916Y5151
X21916Y2151
X11479Y4777
X10479Y4777
X9625Y6191
X8428Y7317
X8074Y8297
X8074Y9297
X9314Y9317
X9314Y8317
X10416Y8297
X10416Y9297
X8629Y11053
X8629Y12053
X8629Y13053
X8629Y14053
X8629Y15053
X8629Y16053
X8629Y17053
X8629Y18053
X8629Y19053
X8629Y20053
X8629Y21053
X8629Y22053
X8629Y23053
X8629Y24053
X4483Y20301
X3334Y19403
X4483Y17301
X3334Y22403
X3223Y23301
X3223Y26301
X10116Y19050
X10116Y18050
X10168Y14025
X10168Y13025
X8428Y4317
X9625Y3191
X10991Y2376
X7991Y2376
X2664Y4009
X2664Y7009
T04
X2944Y8224
X2944Y9224
X2944Y10224
X3869Y11593
X2767Y12954
X2767Y13954
X2767Y14954
X2767Y15954
X2767Y16954
X2767Y17954
X5574Y15324
X6574Y14324
X7312Y12502
X7302Y11567
X5621Y11474
X5621Y10474
X5621Y9474
X5621Y8474
X5621Y7474
X5621Y6474
X5621Y5474
X7252Y5544
X7291Y6685
X7220Y7777
X7252Y9785
X11901Y3801
X11782Y1832
X14366Y2450
X13666Y4800
X18357Y5218
X18662Y8328
X19662Y9328
X18662Y10328
X21546Y12541
X23769Y12525
X23769Y11525
X23769Y10525
X23769Y9525
X23769Y8525
X23769Y7525
X23769Y6525
X23769Y5525
X23769Y4525
X22026Y6009
X22126Y7029
X22105Y7777
X22215Y9785
X23516Y16550
X22166Y20200
X22166Y21200
X24156Y20450
X22166Y24200
X15168Y30179
X11881Y29572
X10881Y29572
X9881Y29572
X8881Y29572
X7881Y29572
X6881Y29572
X6818Y26793
X7818Y26793
X8818Y26793
X10566Y25700
X11716Y27450
X12166Y24950
X13166Y24200
X13166Y23200
X13166Y21200
X13166Y20200
X6782Y23919
X6487Y21844
X6487Y20844
X6487Y19844
X6487Y18844
X6487Y17844
X6574Y16324
X5818Y26793
X8466Y3250
X6771Y3033
X5771Y3033
T05
X17869Y29982
X19869Y29982
T06
X19885Y26360
X15885Y26360
T07
X14166Y25350
X21166Y19050
T08
X3515Y2383
X24263Y2344
X24027Y28565
X2727Y29037
M30
